<?xml version="1.0" encoding="iso-8859-1"?>
<!-- Generator: Adobe Illustrator 19.0.0, SVG Export Plug-In . SVG Version: 6.00 Build 0)  -->
<svg version="1.1" id="Capa_1" xmlns="http://www.w3.org/2000/svg" xmlns:xlink="http://www.w3.org/1999/xlink" x="0px" y="0px"
	 viewBox="0 0 211.627 211.627" style="enable-background:new 0 0 211.627 211.627;" xml:space="preserve">
<rect x="3.413" y="63.145" style="fill:#777777;" width="204.8" height="54.613"/>
<path d="M208.213,121.166H3.413c-1.884,0-3.413-1.529-3.413-3.413V63.14c0-1.884,1.529-3.413,3.413-3.413h204.8
	c1.884,0,3.413,1.529,3.413,3.413v54.613C211.627,119.639,210.098,121.166,208.213,121.166z M6.827,114.34H204.8V66.553H6.827
	V114.34z"/>
<polygon style="fill:#777777;" points="208.213,63.141 3.413,63.141 37.547,8.528 174.08,8.528 "/>
<path d="M208.213,66.553H3.413c-1.242,0-2.383-0.674-2.985-1.758c-0.602-1.084-0.567-2.412,0.09-3.463L34.652,6.719
	c0.625-0.998,1.719-1.604,2.895-1.604H174.08c1.176,0,2.27,0.606,2.895,1.604l34.133,54.613c0.657,1.051,0.691,2.379,0.09,3.463
	C210.598,65.879,209.456,66.553,208.213,66.553z M9.571,59.726h192.483L172.187,11.94H39.438L9.571,59.726z"/>
<path d="M105.813,90.446H20.48c-1.884,0-3.413-1.529-3.413-3.413c0-1.884,1.529-3.413,3.413-3.413h85.333
	c1.884,0,3.413,1.529,3.413,3.413C109.227,88.917,107.698,90.446,105.813,90.446z"/>
<path style="fill:#DDDDDD;" d="M112.055,171.837c6.24,4.842,20.511,33.447,29.283,31.116c9.906-2.633,12.288-25.677,5.32-51.47
	c-6.967-25.793-11.085-45.776-22.19-49.065c-4.273-1.265-12.962-3.854-22.178,1.615c-9.216,5.468-38.349,5.468-47.565,0
	c-9.216-5.468-17.905-2.879-22.178-1.615c-11.105,3.289-15.223,23.27-22.19,49.065c-6.967,25.793-4.586,48.838,5.32,51.47
	c8.772,2.331,23.043-26.274,29.283-31.116c4.321-3.354,16.625-3.692,24.685-3.582l20.89-0.015
	C98.353,168.275,108.268,168.898,112.055,171.837z"/>
<path d="M16.729,206.505c-0.643,0-1.287-0.082-1.93-0.253c-3.123-0.829-5.704-2.976-7.668-6.381
	c-5.536-9.591-5.565-28.935-0.07-49.277c0.717-2.656,1.403-5.248,2.072-7.769c6.18-23.33,10.644-40.187,22.446-43.68
	c4.688-1.388,14.404-4.27,24.888,1.952c8.24,4.886,35.84,4.89,44.08,0c10.482-6.221,20.197-3.342,24.866-1.958
	c11.824,3.5,16.288,20.357,22.468,43.687c0.669,2.521,1.355,5.113,2.072,7.769c5.495,20.342,5.466,39.685-0.07,49.277
	c-1.964,3.405-4.545,5.552-7.668,6.381c-8.049,2.169-16.254-9.723-24.18-21.197c-3.113-4.511-6.332-9.172-8.071-10.522h-0.002
	c-1.089-0.845-5.161-2.816-19.444-2.881l-20.871,0.015c-16.749-0.215-21.388,1.927-22.596,2.865
	c-1.741,1.35-4.958,6.011-8.071,10.522C31.684,195.613,24.165,206.505,16.729,206.505z M42.576,104.103
	c-3.7,0-6.869,0.94-9.039,1.582c-8.144,2.412-12.409,18.509-17.809,38.888c-0.671,2.529-1.36,5.135-2.08,7.799
	c-5.736,21.241-4.441,37.446-0.608,44.083c1.026,1.775,2.207,2.852,3.511,3.198c3.436,0.896,12.802-12.679,16.809-18.48
	c3.874-5.608,6.932-10.039,9.506-12.035c3.973-3.084,12.747-4.506,26.825-4.299l20.84-0.015c16.282,0.073,21.275,2.497,23.617,4.313
	c2.572,1.997,5.632,6.427,9.504,12.035c4.006,5.799,13.392,19.335,16.809,18.48c1.304-0.346,2.485-1.423,3.511-3.198
	c3.831-6.637,5.129-22.842-0.608-44.083c-0.72-2.666-1.41-5.27-2.08-7.799c-5.4-20.379-9.663-36.477-17.785-38.881
	c-4.052-1.201-11.549-3.418-19.468,1.275c-10.257,6.086-40.789,6.086-51.046,0C49.324,104.796,45.756,104.103,42.576,104.103z"/>
<rect x="40.96" y="121.171" width="6.827" height="27.307"/>
<path d="M110.933,151.886c-8.47,0-15.36-6.89-15.36-15.36s6.89-15.36,15.36-15.36s15.36,6.89,15.36,15.36
	S119.404,151.886,110.933,151.886z M110.933,127.993c-4.705,0-8.533,3.828-8.533,8.533c0,4.705,3.828,8.533,8.533,8.533
	c4.705,0,8.533-3.828,8.533-8.533C119.467,131.821,115.639,127.993,110.933,127.993z"/>
<circle style="fill:#EE5281;" cx="182.613" cy="88.745" r="8.533"/>
<path d="M182.613,100.686c-6.586,0-11.947-5.361-11.947-11.947s5.361-11.947,11.947-11.947s11.947,5.361,11.947,11.947
	S189.199,100.686,182.613,100.686z M182.613,83.62c-2.823,0-5.12,2.297-5.12,5.12s2.297,5.12,5.12,5.12
	c2.823,0,5.12-2.297,5.12-5.12S185.436,83.62,182.613,83.62z"/>
<rect x="30.72" y="131.411" width="27.307" height="6.827"/>
<g>
</g>
<g>
</g>
<g>
</g>
<g>
</g>
<g>
</g>
<g>
</g>
<g>
</g>
<g>
</g>
<g>
</g>
<g>
</g>
<g>
</g>
<g>
</g>
<g>
</g>
<g>
</g>
<g>
</g>
</svg>
