<svg height="512pt" viewBox="-64 0 512 512" width="512pt" xmlns="http://www.w3.org/2000/svg"><path d="m216.746094 25.796875h-50.207032c-4.199218 0-7.605468 3.40625-7.605468 7.605469 0 4.199218 3.40625 7.601562 7.605468 7.601562h50.207032c4.199218 0 7.605468-3.402344 7.605468-7.601562 0-4.199219-3.40625-7.605469-7.605468-7.605469zm0 0"/><path d="m216.746094 475.257812c4.199218 0 7.605468-3.40625 7.605468-7.605468 0-4.199219-3.40625-7.601563-7.605468-7.601563h-50.207032c-4.199218 0-7.605468 3.402344-7.605468 7.601563 0 4.199218 3.40625 7.605468 7.605468 7.605468zm0 0"/><path d="m361.816406 50.027344v-9.894532c0-22.128906-18.003906-40.132812-40.132812-40.132812h-260.082032c-22.128906 0-40.132812 18.003906-40.132812 40.132812v9.894532c-11.960938.742187-21.46875 10.703125-21.46875 22.851562v31.507813c0 12.140625 9.503906 22.105469 21.464844 22.847656v2.066406c-11.960938.746094-21.464844 10.707031-21.464844 22.851563v31.507812c0 12.144532 9.503906 22.105469 21.464844 22.847656l.003906 265.359376c0 22.128906 18.003906 40.132812 40.132812 40.132812h54.457032c4.199218 0 7.605468-3.40625 7.605468-7.605469s-3.40625-7.601562-7.605468-7.601562h-54.457032c-13.742187 0-24.925781-11.183594-24.925781-24.925781v-29.210938h309.933594v29.210938c0 13.742187-11.183594 24.925781-24.925781 24.925781h-175.207032c-4.199218 0-7.605468 3.402343-7.605468 7.601562s3.40625 7.605469 7.605468 7.605469h175.207032c22.128906 0 40.132812-18.003906 40.132812-40.132812v-313.984376c11.960938-.742187 21.464844-10.703124 21.464844-22.851562v-62.152344c0-12.144531-9.503906-22.109375-21.464844-22.851562zm-346.609375 54.359375v-31.507813c0-3.75 2.699219-6.886718 6.257813-7.558594v46.621094c-3.558594-.671875-6.257813-3.804687-6.257813-7.554687zm0 79.273437v-31.507812c0-3.75 2.699219-6.882813 6.257813-7.558594v46.625c-3.558594-.675781-6.257813-3.808594-6.257813-7.558594zm21.46875 243.789063v-362.261719h250.8125c4.199219 0 7.605469-3.40625 7.605469-7.605469s-3.40625-7.601562-7.605469-7.601562h-250.8125v-9.847657c0-13.742187 11.183594-24.925781 24.925781-24.925781h260.082032c13.742187 0 24.925781 11.183594 24.925781 24.925781v9.84375h-28.703125c-4.203125 0-7.605469 3.40625-7.605469 7.605469s3.402344 7.605469 7.605469 7.605469h28.703125v362.261719zm331.398438-292.414063c0 3.75-2.699219 6.882813-6.257813 7.558594v-77.273438c3.558594.671876 6.257813 3.808594 6.257813 7.558594zm0 0"/><path d="m278.730469 166.546875h-146.84375l-5.628907-46.871094c-.457031-3.820312-3.699218-6.699219-7.550781-6.699219h-39.203125c-4.199218 0-7.601562 3.40625-7.601562 7.605469s3.402344 7.601563 7.601562 7.601563h32.460938l23.117187 192.582031c.460938 3.820313 3.703125 6.695313 7.550781 6.695313h109.347657c4.199219 0 7.601562-3.402344 7.601562-7.601563s-3.402343-7.605469-7.601562-7.605469h-102.601563l-2.582031-21.496094h118.847656c3.851563 0 7.09375-2.878906 7.550781-6.699218l13.085938-109c.257812-2.160156-.417969-4.328125-1.863281-5.953125-1.441407-1.625-3.511719-2.558594-5.6875-2.558594zm-145.019531 15.207031h31.730468l4.285156 93.792969h-24.753906zm51.238281 93.792969-4.285157-93.792969h42.542969l-4.285156 93.792969zm73.949219 0h-24.753907l4.289063-93.792969h31.726562zm0 0"/><path d="m168.988281 335.5c-13.074219 0-23.707031 10.632812-23.707031 23.707031 0 13.070313 10.632812 23.707031 23.707031 23.707031 13.070313 0 23.707031-10.636718 23.707031-23.707031 0-13.074219-10.636718-23.707031-23.707031-23.707031zm0 32.203125c-4.6875 0-8.5-3.8125-8.5-8.496094 0-4.6875 3.8125-8.5 8.5-8.5 4.683594 0 8.496094 3.8125 8.496094 8.5 0 4.683594-3.8125 8.496094-8.496094 8.496094zm0 0"/><path d="m233.542969 335.5c-13.070313 0-23.707031 10.632812-23.707031 23.707031 0 13.070313 10.636718 23.707031 23.707031 23.707031 13.070312 0 23.707031-10.636718 23.707031-23.707031 0-13.074219-10.636719-23.707031-23.707031-23.707031zm0 32.203125c-4.683594 0-8.5-3.8125-8.5-8.496094 0-4.6875 3.816406-8.5 8.5-8.5 4.6875 0 8.5 3.8125 8.5 8.5 0 4.683594-3.8125 8.496094-8.5 8.496094zm0 0"/></svg>