<svg height="512" viewBox="0 0 128 128" width="512" xmlns="http://www.w3.org/2000/svg"><g><g><path d="m52.213 91.534h23.558v6.591h-23.558z" fill="#cbe1f8" transform="matrix(.361 -.933 .933 .361 -47.533 120.324)"/><path d="m61.828 116.738a8.109 8.109 0 1 0 -10.705-4.111 8.108 8.108 0 0 0 10.705 4.111z" fill="#6a7172"/><path d="m91.498 83.051h6.591v23.558h-6.591z" fill="#cbe1f8" transform="matrix(.933 -.361 .361 .933 -27.816 40.559)"/><path d="m107.663 112.627a8.109 8.109 0 1 0 -10.7 4.111 8.11 8.11 0 0 0 10.7-4.111z" fill="#6a7172"/><path d="m103.042 76.22 4.26-16.17.9-3.43 4.24-16.09h-68.65l10.54 40h47.57z" fill="#7eb3ed"/><path d="m33.957 19.478 16.058 62.181a4.461 4.461 0 0 0 4.315 3.329h47.57a4.46 4.46 0 0 0 0-8.919h-44.128l-16.059-62.181a4.46 4.46 0 0 0 -4.313-3.329h-19.056a4.46 4.46 0 0 0 0 8.919z" fill="#cbe1f8"/><path d="m55.354 84.988-3.863 7.973h54.733l-3.863-7.973z" fill="#b9d4ed"/></g><g><path d="m115.87 30.8a1.749 1.749 0 0 0 -1.75-1.75h-66.687l-4.033-15.6a6.2 6.2 0 0 0 -6-4.64h-19.06a6.21 6.21 0 1 0 0 12.42h14.26l2.581 10a1.75 1.75 0 1 0 3.389-.875l-2.92-11.31a1.774 1.774 0 0 0 -1.69-1.315h-15.62a2.71 2.71 0 1 1 0-5.42h19.06a2.7 2.7 0 0 1 2.616 2.018c2.542 9.844 13.8 53.428 16.06 62.179a1.749 1.749 0 0 0 1.694 1.313h44.13a2.71 2.71 0 0 1 0 5.42h-47.57a2.7 2.7 0 0 1 -2.616-2.02l-4.339-16.788a1.75 1.75 0 0 0 -3.389.876l4.34 16.79a6.191 6.191 0 0 0 3.746 4.2l-2.857 5.9a1.75 1.75 0 0 0 1.575 2.512h7.838l-1.907 4.934a9.6 9.6 0 0 0 -2.2.677 9.862 9.862 0 1 0 13.022 5 9.493 9.493 0 0 0 -1.349-2.19l3.257-8.422h5.7a1.75 1.75 0 0 0 0-3.5h-21.569l2.165-4.47h44.816l2.164 4.47h-18.208a1.75 1.75 0 0 0 0 3.5h4.822l3.257 8.423a9.481 9.481 0 0 0 -1.347 2.185 9.857 9.857 0 1 0 13.015-5 9.6 9.6 0 0 0 -2.207-.679l-1.906-4.934h5.366a1.751 1.751 0 0 0 1.581-2.504l-2.865-5.915a6.194 6.194 0 0 0 .881-11.052l9.022-34.254a1.75 1.75 0 0 0 -1.693-2.2h-62.499l-1.609-6.23h65.783a1.75 1.75 0 0 0 1.75-1.749zm-54.751 84.342a6.362 6.362 0 1 1 3.219-8.408v.007a6.37 6.37 0 0 1 -3.219 8.401zm1.261-20.432h3.32l-2.332 6.028a10.043 10.043 0 0 0 -2.9-1.076zm34.019 0 1.916 4.953a10.065 10.065 0 0 0 -2.89 1.075l-2.332-6.028zm6.433 8.806h.006a6.36 6.36 0 1 1 -8.386 3.215 6.384 6.384 0 0 1 8.38-3.215zm-43.707-29.196-3.686-14.272h13.507l4.165 14.272zm17.632 0-4.165-14.272h16.236l4.165 14.272zm24.973 0h-5.092l-4.164-14.272h13.016zm8.44-32.04-3.758 14.268h-14.96l-4.164-14.268zm-26.527 0 4.164 14.268h-16.237l-4.163-14.268zm-19.882 0 4.164 14.268h-13.39l-3.685-14.268z"/><path d="m59.817 112.22a3.163 3.163 0 1 0 -4.177-1.6 3.167 3.167 0 0 0 4.177 1.6z"/><path d="m103.289 110.616a3.163 3.163 0 1 0 -4.177 1.6 3.167 3.167 0 0 0 4.177-1.6z"/><path d="m43.338 57.55a1.752 1.752 0 0 0 1.7-2.188l-4.123-15.949a1.75 1.75 0 1 0 -3.389.875l4.12 15.949a1.75 1.75 0 0 0 1.692 1.313z"/></g></g></svg>