<svg height="512pt" viewBox="-100 0 512 512" width="512pt" xmlns="http://www.w3.org/2000/svg"><path d="m10 77.371094h291.605469v343.253906h-291.605469zm0 0" fill="#5fccf5"/><path d="m301.605469 77.371094h-291.605469v-50.46875c0-9.335938 7.566406-16.902344 16.902344-16.902344h257.800781c9.335937 0 16.902344 7.566406 16.902344 16.902344zm0 0" fill="#eaecf0"/><path d="m10 420.625h291.605469v64.472656c0 9.335938-7.570313 16.902344-16.902344 16.902344h-257.800781c-9.335938 0-16.902344-7.566406-16.902344-16.902344zm0 0" fill="#bbb8c7"/><path d="m247.242188 53.691406c-.648438 0-1.308594-.070312-1.949219-.203125-.640625-.128906-1.269531-.316406-1.871094-.566406-.609375-.25-1.191406-.5625-1.730469-.921875-.550781-.359375-1.058594-.78125-1.519531-1.238281-.460937-.460938-.878906-.972657-1.238281-1.523438-.363282-.539062-.671875-1.117187-.921875-1.726562-.25-.601563-.441407-1.230469-.570313-1.871094s-.199218-1.300781-.199218-1.949219c0-.660156.070312-1.3125.199218-1.960937.128906-.640625.320313-1.269531.570313-1.871094.25-.597656.558593-1.179687.921875-1.71875.359375-.550781.777344-1.058594 1.238281-1.519531.460937-.460938.96875-.882813 1.519531-1.25.539063-.359375 1.121094-.671875 1.730469-.921875.601563-.25 1.230469-.4375 1.871094-.570313 1.289062-.257812 2.617187-.257812 3.910156 0 .628906.132813 1.257813.320313 1.867187.570313.601563.25 1.183594.5625 1.722657.921875.550781.367187 1.058593.789062 1.519531 1.25.460938.460937.878906.96875 1.25 1.519531.359375.539063.667969 1.121094.917969 1.71875.25.601563.441406 1.230469.570312 1.871094.132813.648437.191407 1.300781.191407 1.960937 0 .648438-.058594 1.308594-.191407 1.949219-.128906.640625-.320312 1.269531-.570312 1.871094-.25.609375-.558594 1.1875-.917969 1.726562-.371094.550781-.789062 1.0625-1.25 1.523438-.460938.457031-.96875.878906-1.519531 1.238281-.539063.359375-1.121094.671875-1.722657.921875-.609374.25-1.238281.4375-1.867187.566406-.652344.132813-1.3125.203125-1.960937.203125zm0 0"/><path d="m205.726562 53.6875h-141.367187c-5.523437 0-10-4.476562-10-10s4.476563-10 10-10h141.367187c5.519532 0 10 4.476562 10 10s-4.480468 10-10 10zm0 0"/><path d="m174.800781 472.3125h-38c-5.523437 0-10-4.476562-10-10s4.476563-10 10-10h38c5.523438 0 10 4.476562 10 10s-4.476562 10-10 10zm0 0"/><path d="m64.640625 326.558594h182.324219v50.414062h-182.324219zm0 0" fill="#f26a5b"/><path d="m246.964844 386.972656h-182.324219c-5.523437 0-10-4.476562-10-10v-50.414062c0-5.523438 4.476563-10 10-10h182.324219c5.519531 0 10 4.476562 10 10v50.414062c0 5.523438-4.480469 10-10 10zm-172.324219-20h162.324219v-30.414062h-162.324219zm0 0"/><path d="m218.613281 228.339844h-122.28125v-66.078125h140.605469zm0 0" fill="#ffd36c"/><path d="m141.882812 277.300781c0 10.203125-8.273437 18.476563-18.476562 18.476563s-18.476562-8.273438-18.476562-18.476563 8.273437-18.476562 18.476562-18.476562 18.476562 8.273437 18.476562 18.476562zm0 0" fill="#eaecf0"/><path d="m204.863281 277.300781c0 10.203125-8.273437 18.476563-18.476562 18.476563s-18.476563-8.273438-18.476563-18.476563 8.273438-18.476562 18.476563-18.476562 18.476562 8.273437 18.476562 18.476562zm0 0" fill="#eaecf0"/><path d="m284.703125 0h-257.800781c-14.835938 0-26.902344 12.066406-26.902344 26.902344v458.195312c0 14.835938 12.066406 26.902344 26.902344 26.902344h257.800781c14.832031 0 26.902344-12.066406 26.902344-26.902344v-458.195312c0-14.835938-12.070313-26.902344-26.902344-26.902344zm-264.703125 87.375h271.605469v323.25h-271.605469zm0-60.472656c0-3.804688 3.097656-6.902344 6.902344-6.902344h257.800781c3.804687 0 6.902344 3.097656 6.902344 6.902344v40.472656h-271.605469zm271.605469 458.195312c0 3.804688-3.097657 6.902344-6.902344 6.902344h-257.800781c-3.804688 0-6.902344-3.097656-6.902344-6.902344v-54.472656h271.605469zm0 0"/><path d="m236.9375 152.261719h-130.605469v-20.535157c0-12.574218-10.230469-22.804687-22.804687-22.804687h-8.859375c-5.523438 0-10 4.476563-10 10s4.476562 10 10 10h8.859375c1.546875 0 2.804687 1.257813 2.804687 2.804687v127.097657c0 5.484375 4.414063 9.9375 9.886719 10-.835938 2.679687-1.289062 5.527343-1.289062 8.476562 0 15.703125 12.773437 28.476563 28.476562 28.476563s28.476562-12.773438 28.476562-28.476563c0-2.949219-.449218-5.796875-1.289062-8.476562h8.605469c-.835938 2.679687-1.289063 5.527343-1.289063 8.476562 0 15.703125 12.777344 28.476563 28.476563 28.476563 15.703125 0 28.476562-12.773438 28.476562-28.476563 0-2.949219-.453125-5.796875-1.289062-8.476562h5.039062c5.523438 0 10-4.476563 10-10 0-5.523438-4.476562-10-10-10h-112.28125v-10.480469h112.28125c4.496094 0 8.4375-3 9.640625-7.328125l18.320313-66.082031c.832031-3.011719.210937-6.238282-1.679688-8.726563-1.890625-2.484375-4.835937-3.945312-7.957031-3.945312zm-105.054688 125.039062c0 4.671875-3.804687 8.476563-8.476562 8.476563s-8.476562-3.804688-8.476562-8.476563c0-4.675781 3.800781-8.476562 8.476562-8.476562 4.671875 0 8.476562 3.804687 8.476562 8.476562zm62.980469 0c0 4.671875-3.804687 8.476563-8.476562 8.476563s-8.476563-3.804688-8.476563-8.476563c0-4.675781 3.804688-8.476562 8.476563-8.476562s8.476562 3.804687 8.476562 8.476562zm16.148438-58.960937h-104.679688v-46.078125h117.453125zm0 0"/></svg>