<svg id="Mobile_App" height="512" viewBox="0 0 64 64" width="512" xmlns="http://www.w3.org/2000/svg" data-name="Mobile App"><rect fill="#235182" height="54" rx="2" width="38" x="3" y="7"/><rect fill="#e1ecfd" height="46" rx="1" width="30" x="7" y="11"/><path d="m59 3h-32a2 2 0 0 0 -2 2v30l-4 4h38a2 2 0 0 0 2-2v-32a2 2 0 0 0 -2-2z" fill="#5bcbfa"/><rect fill="#63d9ae" height="4" rx="2" width="6" x="19" y="49"/><g fill="#ffc740"><circle cx="35.53" cy="32" r="3"/><circle cx="51.53" cy="32" r="3"/><path d="m32 12v13h22l3-13z"/></g><path d="m59 2h-32a3 3 0 0 0 -3 3v1h-19a3 3 0 0 0 -3 3v50a3 3 0 0 0 3 3h34a3 3 0 0 0 3-3v-19h17a3 3 0 0 0 3-3v-32a3 3 0 0 0 -3-3zm-38.924 37.383a1 1 0 0 0 .924.617h15v16h-28v-44h16v22.586l-3.707 3.707a1 1 0 0 0 -.217 1.09zm19.924 19.617a1 1 0 0 1 -1 1h-34a1 1 0 0 1 -1-1v-50a1 1 0 0 1 1-1h19v2h-16a2 2 0 0 0 -2 2v44a2 2 0 0 0 2 2h28a2 2 0 0 0 2-2v-16h2zm20-22a1 1 0 0 1 -1 1h-35.586l2.293-2.293a1 1 0 0 0 .293-.707v-30a1 1 0 0 1 1-1h32a1 1 0 0 1 1 1z"/><path d="m57 11h-24v-2a1 1 0 0 0 -1-1h-4v2h3v15a1 1 0 0 0 1 1h22a1 1 0 0 0 .975-.775l3-13a1 1 0 0 0 -.975-1.225zm-3.8 13h-20.2v-11h22.743z"/><path d="m51.53 28c-.107 0-.207.023-.311.031v-.031h-16v.031a3.991 3.991 0 1 0 4.311 3.969 3.95 3.95 0 0 0 -.557-2h9.113a3.959 3.959 0 0 0 -.556 2 4 4 0 1 0 4-4zm-14 4a2 2 0 1 1 -2-2 2 2 0 0 1 2 2zm14 2a2 2 0 1 1 2-2 2 2 0 0 1 -2 2z"/><path d="m18 51a3 3 0 0 0 3 3h2a3 3 0 0 0 0-6h-2a3 3 0 0 0 -3 3zm3-1h2a1 1 0 0 1 0 2h-2a1 1 0 0 1 0-2z"/></svg>