<?xml version="1.0" encoding="iso-8859-1"?>
<!-- Generator: Adobe Illustrator 19.0.0, SVG Export Plug-In . SVG Version: 6.00 Build 0)  -->
<svg version="1.1" id="Capa_1" xmlns="http://www.w3.org/2000/svg" xmlns:xlink="http://www.w3.org/1999/xlink" x="0px" y="0px"
	 viewBox="0 0 471.334 471.334" style="enable-background:new 0 0 471.334 471.334;" xml:space="preserve">
<path style="fill:#656565;" d="M347.667,155.667v48.098h8.14c4.716,0,7.86-3.144,7.86-7.86v-32.378c0-4.716-3.144-7.86-7.86-7.86
	L347.667,155.667L347.667,155.667z"/>
<path style="fill:#888888;" d="M363.667,179.501v-15.974c0-4.716-3.144-7.86-7.86-7.86h-8.14v23.834H363.667z"/>
<path style="fill:#656565;" d="M343.058,315.667h4.75c4.716,0,7.86-3.144,7.86-7.86v-64.281c0-4.716-3.144-7.86-7.86-7.86h-4.75
	V315.667z"/>
<path style="fill:#888888;" d="M355.667,275.667v-32.14c0-4.716-3.144-7.86-7.86-7.86h-4.75v40L355.667,275.667L355.667,275.667z"/>
<g>
	<path style="fill:#333333;" d="M347.496,139.667c-0.553-17.833-7.57-30.447-18.715-37.99c-8.065-6.008-14.443-17.378-17.906-24.482
		c-9.542-19.581-2.699-54.488-12.654-65.863C288.983,0.779,252.353,0,227.686,0s-61.337,0.779-70.574,11.333
		c-9.955,11.375-3.112,46.282-12.654,65.863c-5.068,10.394-12.186,19.442-21.058,26.857c-9.325,7.793-15.066,20.19-15.576,35.614
		L347.496,139.667L347.496,139.667z"/>
	<path style="fill:#333333;" d="M347.496,331.667c-0.553,17.833-7.57,30.447-18.715,37.99c-8.065,6.008-14.443,17.378-17.906,24.482
		c-9.542,19.581-2.699,54.488-12.654,65.863c-9.238,10.554-45.868,11.333-70.535,11.333s-61.337-0.779-70.574-11.333
		c-9.955-11.375-3.112-46.282-12.654-65.863c-5.068-10.394-12.186-19.442-21.058-26.857c-9.325-7.793-15.066-20.19-15.576-35.614
		L347.496,331.667L347.496,331.667z"/>
</g>
<path style="fill:#010101;" d="M299.667,91.667h-144c-26.51,0-48,21.49-48,48v96v96c0,26.51,21.49,48,48,48h144
	c26.51,0,48-21.49,48-48v-96v-96C347.667,113.157,326.177,91.667,299.667,91.667z"/>
<path style="fill:#333333;" d="M337.16,126.174c-5.566-15.403-20.194-26.507-37.493-26.507h-144c-22.054,0-40,17.946-40,40v192
	c0,4.756,0.977,9.258,2.507,13.493L337.16,126.174z"/>
<path style="fill:#4B4B4B;" d="M299.667,107.667c17.645,0,32,14.355,32,32v96v96c0,17.645-14.355,32-32,32h-144
	c-17.645,0-32-14.355-32-32v-96v-96c0-17.645,14.355-32,32-32L299.667,107.667 M299.667,91.667h-144c-26.51,0-48,21.49-48,48v96v96
	c0,26.51,21.49,48,48,48h144c26.51,0,48-21.49,48-48v-96v-96C347.667,113.157,326.177,91.667,299.667,91.667z"/>
<path style="fill:#888888;" d="M330.8,132.534c0.528,2.302,0.867,4.673,0.867,7.133v96v96c0,17.645-14.355,32-32,32h-144
	c-15.185,0-27.873-10.658-31.133-24.867l-3.817,3.817c4.694,14.924,18.495,25.85,34.95,25.85h144c20.292,0,36.8-16.509,36.8-36.8
	v-96v-96c0-3.838-0.756-7.468-1.85-10.95L330.8,132.534z"/>
<path style="fill:#676767;" d="M124.534,338.8c-0.528-2.302-0.867-4.673-0.867-7.133v-96v-96c0-17.645,14.355-32,32-32h144
	c15.185,0,27.873,10.658,31.133,24.867l3.817-3.817c-4.694-14.924-18.495-25.85-34.95-25.85h-144c-20.292,0-36.8,16.508-36.8,36.8
	v96v96c0,3.838,0.756,7.468,1.85,10.95L124.534,338.8z"/>
<path style="fill:#454545;" d="M154.826,107.667c-5.598,0-10.677,1.453-15.124,3.831c-0.001,0.059-0.034,0.11-0.034,0.11
	c0,6.659,5.4,12.059,12,12.059h152c6.6,0,12-5.4,12-12c0,0-0.034-0.11-0.034-0.169c-4.447-2.378-9.526-3.831-15.124-3.831
	L154.826,107.667L154.826,107.667z"/>
<path style="fill:#888888;" d="M154.826,107.667h145.683c5.598,0,10.677,1.453,15.124,3.831
	c-0.097-6.519-5.426-11.831-11.966-11.831h-152c-6.54,0-11.869,5.311-11.966,11.831C144.149,109.12,149.228,107.667,154.826,107.667
	z"/>
<path style="fill:#010101;" d="M299.667,109.267c16.762,0,30.4,13.638,30.4,30.4v96v96c0,16.762-13.638,30.4-30.4,30.4h-144
	c-16.762,0-30.4-13.638-30.4-30.4v-96v-96c0-16.762,13.638-30.4,30.4-30.4H299.667 M299.667,107.667h-144c-17.645,0-32,14.355-32,32
	v96v96c0,17.645,14.355,32,32,32h144c17.645,0,32-14.355,32-32v-96v-96C331.667,122.022,317.312,107.667,299.667,107.667z"/>
<rect x="347.668" y="155.666" style="fill:#656565;" width="4" height="48"/>
<path style="fill:#FFFFFF;" d="M276.292,187.026c-1.547-1.57-4.078-1.625-5.656-0.078l-36.766,35.718
	c-1.143,1.105-1.194,2.638-0.73,4.049l-5.903,5.73l-6.507-4.389c0.209-1.468-0.112-2.968-1.423-3.858l-21.062-14.195
	c-1.828-1.25-4.328-0.766-5.547,1.078c-1.234,1.828-0.75,4.313,1.078,5.554l21.062,14.195c0.687,0.469,1.469,0.687,2.234,0.687
	c0.744,0,1.447-0.265,2.086-0.664l7.367,4.969l0.89-1.328l1.11,1.149l6.85-6.646c0.438,0.159,0.81,0.537,1.275,0.537
	c1,0,2.015-0.375,2.782-1.133l36.766-35.718C277.792,191.143,277.823,188.612,276.292,187.026z"/>
<path style="fill:#E4B827;" d="M228.214,230.013v-7.627h-1.594v7.628c-2.218,0.426-4,2.137-4,4.482s1.782,4.061,4,4.488v61.137
	h1.594v-61.136c2.221-0.428,4.016-2.145,4.016-4.49S230.434,230.439,228.214,230.013z"/>
<g>
</g>
<g>
</g>
<g>
</g>
<g>
</g>
<g>
</g>
<g>
</g>
<g>
</g>
<g>
</g>
<g>
</g>
<g>
</g>
<g>
</g>
<g>
</g>
<g>
</g>
<g>
</g>
<g>
</g>
</svg>
